<svg version="1.1" preserveAspectRatio="none" xmlns="http://www.w3.org/2000/svg" width="500" height="500" viewBox="0 0 500 500"><rect width="100%" height="100%" fill="#1C1C1C" fill-opacity="1"/><svg viewBox="143.8385 227.1186 378.5628 345.0814" width="333" height="303.5483312147945" x="83.5px" y="98.2258px" xmlns="http://www.w3.org/2000/svg" xmlns:xlink="http://www.w3.org/1999/xlink" preserveAspectRatio="none"><defs></defs><style>.companyName {fill:#EDEDED;fill-opacity:1;}.icon1 {fill:#EDEDED;fill-opacity:1;}.icon2 {fill:#F35F40;fill-opacity:1;}.icon3 {fill:#B2B2B1;fill-opacity:1;}.icon3-str {stroke:#B2B2B1;stroke-opacity:1;}.text {fill:#EDEDED;fill-opacity:1;}</style><g opacity="1" transform="rotate(0 238.4792 227.1186)">
<svg width="189.2814" height="189.2814" x="238.4792" y="227.1186" version="1.1" preserveAspectRatio="none" viewBox="101.5 101.5 797 797">
  <g transform="matrix(1 0 0 1 0 0)" class="icon1"><g><path d="M867.18,344.883c-20.071-47.454-48.804-90.07-85.397-126.665c-36.595-36.594-79.211-65.326-126.665-85.397   C605.981,112.038,553.793,101.5,500,101.5s-105.982,10.538-155.117,31.32c-47.454,20.071-90.07,48.803-126.665,85.397   c-36.594,36.595-65.326,79.211-85.397,126.665C112.038,394.018,101.5,446.207,101.5,500s10.538,105.981,31.32,155.117   c20.071,47.454,48.803,90.07,85.397,126.665c36.595,36.594,79.211,65.326,126.665,85.397C394.018,887.962,446.207,898.5,500,898.5   s105.981-10.538,155.117-31.32c47.454-20.071,90.07-48.804,126.665-85.397c36.594-36.595,65.326-79.211,85.397-126.665   C887.962,605.981,898.5,553.793,898.5,500S887.962,394.018,867.18,344.883z M439.21,658.699   c-7.032,2.323-15.588,4.225-24.805,4.225c-25.552,0-46.015-14.735-61.044-43.856L439.21,658.699z M361.478,600.786   c7.661-1.761,16.599-3.14,25.847-3.14c29.98,0,50.327,14.477,60.7,43.094L361.478,600.786z M510,471.102   c10.365,13.367,21.608,32.898,20.604,53.894c-0.708,14.794-7.623,28.698-20.604,41.506V471.102z M510,264.023   c10.377,13.415,21.632,32.986,20.601,53.903c-0.728,14.765-7.642,28.643-20.601,41.428V264.023z M490,358.786   c-8.539-9.149-17.79-22.699-19.495-39.605c-1.771-17.562,4.782-35.949,19.495-54.863V358.786z M490,566.019   c-8.505-9.084-17.723-22.574-19.479-39.542c-1.823-17.608,4.725-36.044,19.479-55.012V566.019z M553.837,641.251   c10.374-28.613,30.722-43.093,60.699-43.093c9.248,0,18.187,1.379,25.847,3.14L553.837,641.251z M648.5,619.579   c-15.03,29.121-35.492,43.856-61.045,43.856c-9.15-0.001-17.708-1.913-24.761-4.245L648.5,619.579z M548.811,875.363v-199.98   c9.787,4.008,23.424,8.053,38.645,8.053c0.002,0,0,0,0.001,0c28.236,0,66.726-13.966,89.729-80.481l2.958-8.556l-8.22-3.793   c-1.101-0.508-27.319-12.447-57.388-12.447c-20.357,0-37.729,5.413-51.632,16.089c-16.315,12.529-27.375,32.032-32.919,58.016   l-1.175,0.542v5.508l-1.014,5.636l1.014,0.663v212.802c-6.229,0.471-12.501,0.791-18.811,0.955V592.744   c25.729-19.257,39.382-41.705,40.582-66.794c1.938-40.53-29.74-74.363-40.582-84.707v-55.646   c25.729-19.256,39.382-41.705,40.582-66.793c2.285-47.805-42.2-86.299-44.095-87.915l-6.889-5.872l-6.527,6.272   c-31.246,30.023-45.526,60.338-42.444,90.101c3.515,33.948,28.716,56.272,39.373,64.293v55.763   c-29.106,29.039-42.352,58.322-39.373,87.09c3.515,33.948,28.716,56.273,39.373,64.294v285.538   c-5.682-0.147-11.332-0.428-16.95-0.825V664.1l1.013-0.663l-1.013-5.638v-5.506l-1.174-0.542   c-5.544-25.983-16.604-45.486-32.92-58.016c-13.902-10.676-31.273-16.089-51.631-16.089c-30.068,0-56.287,11.939-57.388,12.447   l-8.22,3.793l2.959,8.556c23.004,66.519,61.493,80.481,89.729,80.481c15.221,0,28.858-4.045,38.645-8.052v200.726   C266.417,852.405,121.5,692.811,121.5,500c0-143.81,80.621-269.142,199.037-333.181l-2.234,8.371   c-11.174,41.868-7.686,75.195,10.369,99.057c25.658,33.913,70.798,34.956,72.707,34.983l6.619,0.096l2.674-6.055   c14.049-31.81,14.775-59.741,2.158-83.015c-22.809-42.075-80.801-51.957-83.258-52.357l-8.475-1.38   C374.4,137.808,435.331,121.5,500,121.5c208.706,0,378.5,169.794,378.5,378.5C878.5,692.17,734.546,851.346,548.811,875.363z    M332.785,205.032l48.938,80.806c-12.043-3.403-26.976-10.2-37.192-23.778C333.918,247.955,329.999,228.833,332.785,205.032z    M399.124,275.964L349.74,194.42c15.826,6.1,35.59,17.009,45.544,35.435C402.311,242.862,403.586,258.314,399.124,275.964z"></path><path d="M245.986,567.365c-44.541,0-81.235,38.65-82.775,40.296l-6.187,6.608l5.962,6.812   c27.126,30.991,55.293,46.706,83.718,46.706c44.961,0,72.713-39.33,73.873-41.004l3.769-5.443l-3.539-5.595   C300.506,583.643,275.333,567.365,245.986,567.365z M291.686,610.118l-95.28-4.43c12.674-8.914,30.555-18.323,49.58-18.323   C262.781,587.365,278.093,595.009,291.686,610.118z M195.835,625.684l94.357,4.387c-10.096,8.574-25.155,17.717-43.488,17.717   C230.046,647.787,213.002,640.364,195.835,625.684z"></path><path d="M296.462,790.316l-1.399,8.944l8.762,2.279c15.573,4.052,30.137,6.106,43.285,6.106c46.18,0,68.381-24.768,78.873-45.545   c11.039-21.861,11.347-43.563,11.354-44.477l0.056-6.62l-6.073-2.637c-16.493-7.16-32.114-10.791-46.431-10.791   c-30.612,0-55.706,16.378-72.567,47.362C300.167,767.276,296.608,789.387,296.462,790.316z M347.11,787.646   c-4.312,0-8.828-0.265-13.523-0.783l80.625-49.524C408.516,758.123,392.448,787.646,347.11,787.646z M384.889,717.577   c6.04,0,12.458,0.843,19.2,2.509l-81.24,49.901C331.303,747.71,349.312,717.577,384.889,717.577z"></path><path d="M690.094,744.939c-16.861-30.984-41.954-47.362-72.566-47.362c-14.317,0-29.938,3.631-46.432,10.791l-6.073,2.637   l0.056,6.62c0.008,0.913,0.315,22.613,11.354,44.474c10.492,20.776,32.692,45.543,78.872,45.548c0.004,0,0.008,0,0.012,0   c13.141,0,27.701-2.055,43.274-6.106l8.762-2.279l-1.399-8.944C705.808,789.387,702.249,767.276,690.094,744.939z M672.287,754.062   c2.98,5.419,5.376,10.875,7.288,15.931l-81.248-49.906c6.742-1.666,13.16-2.509,19.2-2.509   C640.546,717.577,658.97,729.853,672.287,754.062z M655.307,787.646c-45.343-0.005-61.41-29.532-67.104-50.308l80.626,49.524   c-4.691,0.519-9.204,0.783-13.513,0.783C655.313,787.646,655.31,787.646,655.307,787.646z"></path><path d="M835.376,620.882c-1.541-1.646-38.234-40.296-82.775-40.296c-29.347,0-54.52,16.277-74.821,48.38l-3.538,5.596l3.77,5.442   c1.159,1.674,28.911,40.997,73.87,41.004c0.005,0,0.007,0,0.012,0c28.417,0,56.583-15.716,83.707-46.706l5.963-6.812   L835.376,620.882z M752.601,600.586c18.928,0,36.815,9.411,49.518,18.326l-95.218,4.427   C720.493,608.229,735.805,600.586,752.601,600.586z M751.884,661.008c-18.335-0.003-33.395-9.146-43.488-17.717l94.356-4.387   c-17.165,14.681-34.206,22.104-50.859,22.104C751.89,661.008,751.887,661.008,751.884,661.008z"></path><path d="M354.37,333.221c-4.667,0-7.515,0.216-7.824,0.241l-9.024,0.718l-0.181,9.051c-0.779,39.048,8.413,68.626,27.319,87.914   c19.852,20.252,45.716,24.503,63.918,24.503c12.307,0,21.046-1.979,21.412-2.063l6.452-1.485l1.153-6.519   c5.826-32.942,0.516-59.499-15.783-78.932C416.51,336.478,372.232,333.221,354.37,333.221z M426.488,379.5   c9.024,10.76,13.488,24.944,13.371,42.308l-67.445-67.445C389.816,356.563,412.453,362.764,426.488,379.5z M358.523,368.756   l66.834,66.834c-14.067-0.476-32.512-4.264-46.415-18.447C367.979,405.959,361.148,389.739,358.523,368.756z"></path><path d="M578.838,309.326l6.619-0.096c1.909-0.028,47.049-1.071,72.707-34.983c18.054-23.861,21.543-57.189,10.369-99.057   l-2.334-8.746l-8.935,1.455c-2.458,0.4-60.45,10.282-83.259,52.357c-12.617,23.274-11.892,51.205,2.158,83.015L578.838,309.326z    M642.306,262.06c-10.216,13.578-25.148,20.376-37.192,23.778l48.938-80.806C656.836,228.833,652.917,247.956,642.306,262.06z    M591.551,229.855c9.955-18.426,29.721-29.336,45.545-35.436l-49.384,81.544C583.25,258.314,584.525,242.862,591.551,229.855z"></path><path d="M222.358,398.255c14.635,12.504,32.594,18.844,53.379,18.844c22.313,0,39.882-7.559,40.62-7.881l6.067-2.649l-0.069-6.62   c-0.364-35.035-11.408-60.883-32.823-76.827c-15.454-11.504-35.622-17.338-59.944-17.338c-20.442,0-36.381,4.26-37.05,4.441   l-8.737,2.37l1.491,8.929C191.117,356.402,203.587,382.218,222.358,398.255z M210.795,342.693l78.044,53.389   c-3.993,0.607-8.417,1.017-13.102,1.017C244.053,397.1,222.285,378.813,210.795,342.693z M300.541,379.856l-78.691-53.833   c2.477-0.145,5.059-0.238,7.738-0.238C270.289,325.786,294.07,343.961,300.541,379.856z"></path><path d="M722.848,417.1c0.003,0,0.004,0,0.006,0c20.782,0,38.74-6.34,53.374-18.844c18.771-16.038,31.241-41.854,37.065-76.73   l1.491-8.929l-8.736-2.37c-0.669-0.181-16.608-4.441-37.05-4.441c-24.322,0-44.49,5.833-59.944,17.338   c-21.415,15.943-32.459,41.792-32.822,76.827l-0.069,6.62l6.067,2.648C682.967,409.541,700.536,417.099,722.848,417.1z    M722.85,397.1c-4.658,0-9.081-0.415-13.085-1.029l78.026-53.378C776.303,378.818,754.535,397.1,722.85,397.1z M768.998,325.786   c2.679,0,5.26,0.093,7.737,0.238l-78.69,53.832C704.515,343.959,728.296,325.786,768.998,325.786z"></path><path d="M238.021,426.892c-4.667,0-7.515,0.216-7.824,0.241l-9.024,0.718l-0.181,9.051c-0.779,39.048,8.413,68.626,27.319,87.914   c19.852,20.252,45.716,24.503,63.918,24.503c12.307,0,21.047-1.979,21.413-2.063l6.452-1.484l1.153-6.52   c5.826-32.941,0.516-59.498-15.783-78.932C300.162,430.149,255.884,426.892,238.021,426.892z M310.14,473.171   c9.024,10.76,13.489,24.943,13.372,42.308l-67.446-67.445C273.468,450.235,296.104,456.436,310.14,473.171z M242.175,462.428   l66.834,66.834c-14.067-0.476-32.512-4.263-46.415-18.446C251.631,499.631,244.8,483.411,242.175,462.428z"></path><path d="M767.107,436.902l-0.181-9.051l-9.024-0.718c-0.31-0.025-3.157-0.241-7.824-0.241c-17.861,0-62.14,3.257-87.441,33.427   c-16.299,19.434-21.608,45.991-15.783,78.932l1.153,6.52l6.452,1.484c0.366,0.085,9.105,2.063,21.412,2.063   c0.003,0,0.004,0,0.007,0c18.2,0,44.06-4.252,63.909-24.5C758.694,505.531,767.887,475.952,767.107,436.902z M677.961,473.171   c14.035-16.735,36.671-22.936,54.073-25.137l-67.444,67.445C664.473,498.114,668.937,483.931,677.961,473.171z M679.092,529.262   l66.833-66.833c-2.625,20.984-9.456,37.205-20.42,48.389C711.601,525.001,693.156,528.787,679.092,529.262z"></path><path d="M664.521,343.23l-0.181-9.051l-9.024-0.718c-0.31-0.025-3.157-0.241-7.824-0.241c-17.862,0-62.14,3.257-87.442,33.427   c-16.299,19.434-21.608,45.99-15.783,78.932l1.153,6.52l6.452,1.485c0.366,0.084,9.104,2.062,21.411,2.063c0.002,0,0.004,0,0.007,0   c18.2,0,44.061-4.251,63.911-24.5C656.107,411.859,665.3,382.28,664.521,343.23z M575.373,379.5   c14.035-16.735,36.672-22.936,54.074-25.137l-67.445,67.445C561.885,404.443,566.349,390.26,575.373,379.5z M622.918,417.146   c-13.904,14.184-32.349,17.97-46.414,18.445l66.834-66.834C640.713,389.74,633.882,405.961,622.918,417.146z"></path></g></g>
</svg>
</g><g opacity="1" transform="rotate(0 158.9048 548.4)">
<svg width="348.4302" height="23.8" x="158.9048" y="548.4" version="1.1" preserveAspectRatio="none" viewBox="1.84 -29.68 437.36000000000007 29.88">
  <g transform="matrix(1 0 0 1 0 0)" class="text"><path id="id-6izo4zJp20" d="M12.68 0.20Q9.56 0.20 7.10-1.16Q4.64-2.52 3.24-4.98Q1.84-7.44 1.84-10.52L1.84-10.52Q1.84-13.60 3.24-16.04Q4.64-18.48 7.10-19.84Q9.56-21.20 12.68-21.20L12.68-21.20Q15.40-21.20 17.54-20.14Q19.68-19.08 20.92-17.04L20.92-17.04L18.80-15.60Q17.76-17.16 16.16-17.94Q14.56-18.72 12.68-18.72L12.68-18.72Q10.40-18.72 8.58-17.70Q6.76-16.68 5.74-14.80Q4.72-12.92 4.72-10.52L4.72-10.52Q4.72-8.08 5.74-6.22Q6.76-4.36 8.58-3.34Q10.40-2.32 12.68-2.32L12.68-2.32Q14.56-2.32 16.16-3.08Q17.76-3.84 18.80-5.40L18.80-5.40L20.92-3.96Q19.68-1.92 17.52-0.86Q15.36 0.20 12.68 0.20L12.68 0.20Z M37.92 0.20Q34.88 0.20 32.44-1.18Q30-2.56 28.60-5Q27.20-7.44 27.20-10.52L27.20-10.52Q27.20-13.60 28.60-16.04Q30-18.48 32.44-19.84Q34.88-21.20 37.92-21.20L37.92-21.20Q40.96-21.20 43.40-19.84Q45.84-18.48 47.22-16.04Q48.60-13.60 48.60-10.52L48.60-10.52Q48.60-7.44 47.22-5Q45.84-2.56 43.40-1.18Q40.96 0.20 37.92 0.20L37.92 0.20ZM37.92-2.32Q40.16-2.32 41.94-3.34Q43.72-4.36 44.72-6.24Q45.72-8.12 45.72-10.52L45.72-10.52Q45.72-12.92 44.72-14.80Q43.72-16.68 41.94-17.70Q40.16-18.72 37.92-18.72L37.92-18.72Q35.68-18.72 33.90-17.70Q32.12-16.68 31.10-14.80Q30.08-12.92 30.08-10.52L30.08-10.52Q30.08-8.12 31.10-6.24Q32.12-4.36 33.90-3.34Q35.68-2.32 37.92-2.32L37.92-2.32Z M57.60 0L57.60-29.68L60.44-29.68L60.44 0L57.60 0Z M81.72-3.32L82.72-1.28Q81.92-0.56 80.74-0.18Q79.56 0.20 78.28 0.20L78.28 0.20Q75.32 0.20 73.72-1.40Q72.12-3 72.12-5.92L72.12-5.92L72.12-18.64L68.36-18.64L68.36-21.04L72.12-21.04L72.12-25.64L74.96-25.64L74.96-21.04L81.36-21.04L81.36-18.64L74.96-18.64L74.96-6.08Q74.96-4.20 75.90-3.22Q76.84-2.24 78.60-2.24L78.60-2.24Q79.48-2.24 80.30-2.52Q81.12-2.80 81.72-3.32L81.72-3.32Z M91.08 0L91.08-21.04L93.92-21.04L93.92 0L91.08 0ZM92.52-25.64Q91.64-25.64 91.04-26.24Q90.44-26.84 90.44-27.68L90.44-27.68Q90.44-28.48 91.04-29.08Q91.64-29.68 92.52-29.68L92.52-29.68Q93.40-29.68 94.00-29.10Q94.60-28.52 94.60-27.72L94.60-27.72Q94.60-26.84 94.00-26.24Q93.40-25.64 92.52-25.64L92.52-25.64Z M119.92-21.04L122.72-21.04L113.36 0L110.44 0L101.12-21.04L104.08-21.04L111.96-3.12L119.92-21.04Z M136.64-21.20Q140.76-21.20 142.96-19.14Q145.16-17.08 145.16-13.04L145.16-13.04L145.16 0L142.44 0L142.44-3.28Q141.48-1.64 139.62-0.72Q137.76 0.20 135.20 0.20L135.20 0.20Q131.68 0.20 129.60-1.48Q127.52-3.16 127.52-5.92L127.52-5.92Q127.52-8.60 129.46-10.24Q131.40-11.88 135.64-11.88L135.64-11.88L142.32-11.88L142.32-13.16Q142.32-15.88 140.80-17.30Q139.28-18.72 136.36-18.72L136.36-18.72Q134.36-18.72 132.52-18.06Q130.68-17.40 129.36-16.24L129.36-16.24L128.08-18.36Q129.68-19.72 131.92-20.46Q134.16-21.20 136.64-21.20L136.64-21.20ZM135.64-2.04Q138.04-2.04 139.76-3.14Q141.48-4.24 142.32-6.32L142.32-6.32L142.32-9.76L135.72-9.76Q130.32-9.76 130.32-6L130.32-6Q130.32-4.16 131.72-3.10Q133.12-2.04 135.64-2.04L135.64-2.04Z M157.44-2.36L170.92-2.36L170.92 0L153.80 0L153.80-1.88L167.04-18.64L154.04-18.64L154.04-21.04L170.68-21.04L170.68-19.16L157.44-2.36Z M179.72 0L179.72-21.04L182.56-21.04L182.56 0L179.72 0ZM181.16-25.64Q180.28-25.64 179.68-26.24Q179.08-26.84 179.08-27.68L179.08-27.68Q179.08-28.48 179.68-29.08Q180.28-29.68 181.16-29.68L181.16-29.68Q182.04-29.68 182.64-29.10Q183.24-28.52 183.24-27.72L183.24-27.72Q183.24-26.84 182.64-26.24Q182.04-25.64 181.16-25.64L181.16-25.64Z M202.28 0.20Q199.24 0.20 196.80-1.18Q194.36-2.56 192.96-5Q191.56-7.44 191.56-10.52L191.56-10.52Q191.56-13.60 192.96-16.04Q194.36-18.48 196.80-19.84Q199.24-21.20 202.28-21.20L202.28-21.20Q205.32-21.20 207.76-19.84Q210.20-18.48 211.58-16.04Q212.96-13.60 212.96-10.52L212.96-10.52Q212.96-7.44 211.58-5Q210.20-2.56 207.76-1.18Q205.32 0.20 202.28 0.20L202.28 0.20ZM202.28-2.32Q204.52-2.32 206.30-3.34Q208.08-4.36 209.08-6.24Q210.08-8.12 210.08-10.52L210.08-10.52Q210.08-12.92 209.08-14.80Q208.08-16.68 206.30-17.70Q204.52-18.72 202.28-18.72L202.28-18.72Q200.04-18.72 198.26-17.70Q196.48-16.68 195.46-14.80Q194.44-12.92 194.44-10.52L194.44-10.52Q194.44-8.12 195.46-6.24Q196.48-4.36 198.26-3.34Q200.04-2.32 202.28-2.32L202.28-2.32Z M232.68-21.20Q236.64-21.20 238.98-18.90Q241.32-16.60 241.32-12.20L241.32-12.20L241.32 0L238.48 0L238.48-11.92Q238.48-15.20 236.84-16.92Q235.20-18.64 232.16-18.64L232.16-18.64Q228.76-18.64 226.78-16.62Q224.80-14.60 224.80-11.04L224.80-11.04L224.80 0L221.96 0L221.96-21.04L224.68-21.04L224.68-17.16Q225.84-19.08 227.90-20.14Q229.96-21.20 232.68-21.20L232.68-21.20Z M270.68-10.52L270.64-9.64L253.04-9.64Q253.28-6.36 255.56-4.34Q257.84-2.32 261.32-2.32L261.32-2.32Q263.28-2.32 264.92-3.02Q266.56-3.72 267.76-5.08L267.76-5.08L269.36-3.24Q267.96-1.56 265.86-0.68Q263.76 0.20 261.24 0.20L261.24 0.20Q258 0.20 255.50-1.18Q253.00-2.56 251.60-5Q250.20-7.44 250.20-10.52L250.20-10.52Q250.20-13.60 251.54-16.04Q252.88-18.48 255.22-19.84Q257.56-21.20 260.48-21.20L260.48-21.20Q263.40-21.20 265.72-19.84Q268.04-18.48 269.36-16.06Q270.68-13.64 270.68-10.52L270.68-10.52ZM260.48-18.76Q257.44-18.76 255.38-16.82Q253.32-14.88 253.04-11.76L253.04-11.76L267.96-11.76Q267.68-14.88 265.62-16.82Q263.56-18.76 260.48-18.76L260.48-18.76Z M309.72-29.68L312.56-29.68L312.56 0L309.84 0L309.84-4.16Q308.56-2.04 306.46-0.92Q304.36 0.20 301.72 0.20L301.72 0.20Q298.76 0.20 296.36-1.16Q293.96-2.52 292.60-4.96Q291.24-7.40 291.24-10.52L291.24-10.52Q291.24-13.64 292.60-16.08Q293.96-18.52 296.36-19.86Q298.76-21.20 301.72-21.20L301.72-21.20Q304.28-21.20 306.34-20.14Q308.40-19.08 309.72-17.04L309.72-17.04L309.72-29.68ZM301.96-2.32Q304.16-2.32 305.94-3.34Q307.72-4.36 308.74-6.24Q309.76-8.12 309.76-10.52L309.76-10.52Q309.76-12.92 308.74-14.80Q307.72-16.68 305.94-17.70Q304.16-18.72 301.96-18.72L301.96-18.72Q299.72-18.72 297.94-17.70Q296.16-16.68 295.14-14.80Q294.12-12.92 294.12-10.52L294.12-10.52Q294.12-8.12 295.14-6.24Q296.16-4.36 297.94-3.34Q299.72-2.32 301.96-2.32L301.96-2.32Z M323.68 0L323.68-21.04L326.52-21.04L326.52 0L323.68 0ZM325.12-25.64Q324.24-25.64 323.64-26.24Q323.04-26.84 323.04-27.68L323.04-27.68Q323.04-28.48 323.64-29.08Q324.24-29.68 325.12-29.68L325.12-29.68Q326.00-29.68 326.60-29.10Q327.20-28.52 327.20-27.72L327.20-27.72Q327.20-26.84 326.60-26.24Q326.00-25.64 325.12-25.64L325.12-25.64Z M362.04-21.20Q366.00-21.20 368.34-18.90Q370.68-16.60 370.68-12.20L370.68-12.20L370.68 0L367.84 0L367.84-11.92Q367.84-15.20 366.20-16.92Q364.56-18.64 361.52-18.64L361.52-18.64Q358.12-18.64 356.14-16.62Q354.16-14.60 354.16-11.04L354.16-11.04L354.16 0L351.32 0L351.32-21.04L354.04-21.04L354.04-17.16Q355.20-19.08 357.26-20.14Q359.32-21.20 362.04-21.20L362.04-21.20Z M390.28 0.20Q387.24 0.20 384.80-1.18Q382.36-2.56 380.96-5Q379.56-7.44 379.56-10.52L379.56-10.52Q379.56-13.60 380.96-16.04Q382.36-18.48 384.80-19.84Q387.24-21.20 390.28-21.20L390.28-21.20Q393.32-21.20 395.76-19.84Q398.20-18.48 399.58-16.04Q400.96-13.60 400.96-10.52L400.96-10.52Q400.96-7.44 399.58-5Q398.20-2.56 395.76-1.18Q393.32 0.20 390.28 0.20L390.28 0.20ZM390.28-2.32Q392.52-2.32 394.30-3.34Q396.08-4.36 397.08-6.24Q398.08-8.12 398.08-10.52L398.08-10.52Q398.08-12.92 397.08-14.80Q396.08-16.68 394.30-17.70Q392.52-18.72 390.28-18.72L390.28-18.72Q388.04-18.72 386.26-17.70Q384.48-16.68 383.46-14.80Q382.44-12.92 382.44-10.52L382.44-10.52Q382.44-8.12 383.46-6.24Q384.48-4.36 386.26-3.34Q388.04-2.32 390.28-2.32L390.28-2.32Z M418.68 0.20Q415.56 0.20 413.10-1.16Q410.64-2.52 409.24-4.98Q407.84-7.44 407.84-10.52L407.84-10.52Q407.84-13.60 409.24-16.04Q410.64-18.48 413.10-19.84Q415.56-21.20 418.68-21.20L418.68-21.20Q421.40-21.20 423.54-20.14Q425.68-19.08 426.92-17.04L426.92-17.04L424.80-15.60Q423.76-17.16 422.16-17.94Q420.56-18.72 418.68-18.72L418.68-18.72Q416.40-18.72 414.58-17.70Q412.76-16.68 411.74-14.80Q410.72-12.92 410.72-10.52L410.72-10.52Q410.72-8.08 411.74-6.22Q412.76-4.36 414.58-3.34Q416.40-2.32 418.68-2.32L418.68-2.32Q420.56-2.32 422.16-3.08Q423.76-3.84 424.80-5.40L424.80-5.40L426.92-3.96Q425.68-1.92 423.52-0.86Q421.36 0.20 418.68 0.20L418.68 0.20Z M435.68 0L435.68-21.04L438.52-21.04L438.52 0L435.68 0ZM437.12-25.64Q436.24-25.64 435.64-26.24Q435.04-26.84 435.04-27.68L435.04-27.68Q435.04-28.48 435.64-29.08Q436.24-29.68 437.12-29.68L437.12-29.68Q438.00-29.68 438.60-29.10Q439.20-28.52 439.20-27.72L439.20-27.72Q439.20-26.84 438.60-26.24Q438.00-25.64 437.12-25.64L437.12-25.64Z"/></g>
</svg>
</g><g opacity="1" transform="rotate(0 143.8385 456.4)">
<svg width="378.5628" height="70" x="143.8385" y="456.4" version="1.1" preserveAspectRatio="none" viewBox="1.52 -34.68 189.28 35">
  <g transform="matrix(1 0 0 1 0 0)" class="companyName"><path id="id-D6z1nYkh9" d="M8.24 0L1.52 0L1.52-34.36L8.60-34.36L11.76-17.92L11.76-34.36L18.40-34.36L18.40 0L11.68 0L8.24-17.20L8.24 0Z M32.44 0.32Q28.28 0.32 26.12-2.22Q23.96-4.76 23.96-9.36L23.96-9.36L23.96-25.72Q23.96-30.16 26.12-32.42Q28.28-34.68 32.44-34.68L32.44-34.68Q36.60-34.68 38.76-32.42Q40.92-30.16 40.92-25.72L40.92-25.72L40.92-9.36Q40.92-4.72 38.76-2.20Q36.60 0.32 32.44 0.32L32.44 0.32ZM32.44-6Q33.36-6 33.68-6.80Q34-7.60 34-9.04L34-9.04L34-25.84Q34-26.96 33.70-27.66Q33.40-28.36 32.48-28.36L32.48-28.36Q30.76-28.36 30.76-25.76L30.76-25.76L30.76-9Q30.76-7.52 31.12-6.76Q31.48-6 32.44-6L32.44-6Z M54.48 0.32Q50.72 0.32 48.46-2.04Q46.20-4.40 46.20-8.52L46.20-8.52L46.20-24.36Q46.20-29.48 48.24-32.08Q50.28-34.68 54.64-34.68L54.64-34.68Q58.44-34.68 60.76-32.60Q63.08-30.52 63.08-26.60L63.08-26.60L63.08-20.68L56.24-20.68L56.24-25.76Q56.24-27.24 55.88-27.80Q55.52-28.36 54.64-28.36L54.64-28.36Q53.72-28.36 53.38-27.72Q53.04-27.08 53.04-25.84L53.04-25.84L53.04-8.60Q53.04-7.24 53.44-6.62Q53.84-6 54.64-6L54.64-6Q56.24-6 56.24-8.60L56.24-8.60L56.24-14.80L63.16-14.80L63.16-8.32Q63.16 0.32 54.48 0.32L54.48 0.32Z M82.44 0L68.24 0L68.24-34.36L82-34.36L82-27.72L75.24-27.72L75.24-21.04L81.72-21.04L81.72-14.56L75.24-14.56L75.24-6.68L82.44-6.68L82.44 0Z M87.52 0L87.52-34.36L98.08-34.36Q100.60-34.36 101.98-33.22Q103.36-32.08 103.84-30.02Q104.32-27.96 104.32-24.76L104.32-24.76Q104.32-21.84 103.56-20.20Q102.80-18.56 100.92-17.92L100.92-17.92Q102.48-17.60 103.18-16.36Q103.88-15.12 103.88-13L103.88-13L103.80 0L97.08 0L97.08-13.44Q97.08-14.88 96.52-15.28Q95.96-15.68 94.48-15.68L94.48-15.68L94.48 0L87.52 0ZM94.52-21.64L96.16-21.64Q97.60-21.64 97.60-24.76L97.60-24.76Q97.60-26.12 97.48-26.80Q97.36-27.48 97.04-27.74Q96.72-28 96.12-28L96.12-28L94.52-28L94.52-21.64Z M117.60 0.32Q113.44 0.32 111.28-2.22Q109.12-4.76 109.12-9.36L109.12-9.36L109.12-25.72Q109.12-30.16 111.28-32.42Q113.44-34.68 117.60-34.68L117.60-34.68Q121.76-34.68 123.92-32.42Q126.08-30.16 126.08-25.72L126.08-25.72L126.08-9.36Q126.08-4.72 123.92-2.20Q121.76 0.32 117.60 0.32L117.60 0.32ZM117.60-6Q118.52-6 118.84-6.80Q119.16-7.60 119.16-9.04L119.16-9.04L119.16-25.84Q119.16-26.96 118.86-27.66Q118.56-28.36 117.64-28.36L117.64-28.36Q115.92-28.36 115.92-25.76L115.92-25.76L115.92-9Q115.92-7.52 116.28-6.76Q116.64-6 117.60-6L117.60-6Z M139.80 0.32Q135.12 0.32 133.04-2Q130.96-4.32 130.96-9.48L130.96-9.48L130.96-12.84L137.72-12.84L137.72-8.56Q137.72-6 139.36-6L139.36-6Q140.28-6 140.64-6.54Q141-7.08 141-8.36L141-8.36Q141-10.04 140.60-11.14Q140.20-12.24 139.58-12.98Q138.96-13.72 137.36-15.28L137.36-15.28L134.40-18.24Q130.96-21.60 130.96-25.68L130.96-25.68Q130.96-30.08 132.98-32.38Q135-34.68 138.88-34.68L138.88-34.68Q143.52-34.68 145.56-32.22Q147.60-29.76 147.60-24.52L147.60-24.52L140.60-24.52L140.56-26.88Q140.56-27.56 140.18-27.96Q139.80-28.36 139.12-28.36L139.12-28.36Q138.32-28.36 137.92-27.92Q137.52-27.48 137.52-26.72L137.52-26.72Q137.52-25.04 139.44-23.24L139.44-23.24L143.44-19.40Q144.84-18.04 145.76-16.82Q146.68-15.60 147.24-13.94Q147.80-12.28 147.80-10L147.80-10Q147.80-4.92 145.94-2.30Q144.08 0.32 139.80 0.32L139.80 0.32Z M161.04 0.32Q156.36 0.32 154.28-2Q152.20-4.32 152.20-9.48L152.20-9.48L152.20-12.84L158.96-12.84L158.96-8.56Q158.96-6 160.60-6L160.60-6Q161.52-6 161.88-6.54Q162.24-7.08 162.24-8.36L162.24-8.36Q162.24-10.04 161.84-11.14Q161.44-12.24 160.82-12.98Q160.20-13.72 158.60-15.28L158.60-15.28L155.64-18.24Q152.20-21.60 152.20-25.68L152.20-25.68Q152.20-30.08 154.22-32.38Q156.24-34.68 160.12-34.68L160.12-34.68Q164.76-34.68 166.80-32.22Q168.84-29.76 168.84-24.52L168.84-24.52L161.84-24.52L161.80-26.88Q161.80-27.56 161.42-27.96Q161.04-28.36 160.36-28.36L160.36-28.36Q159.56-28.36 159.16-27.92Q158.76-27.48 158.76-26.72L158.76-26.72Q158.76-25.04 160.68-23.24L160.68-23.24L164.68-19.40Q166.08-18.04 167-16.82Q167.92-15.60 168.48-13.94Q169.04-12.28 169.04-10L169.04-10Q169.04-4.92 167.18-2.30Q165.32 0.32 161.04 0.32L161.04 0.32Z M182.32 0.32Q178.16 0.32 176.00-2.22Q173.84-4.76 173.84-9.36L173.84-9.36L173.84-25.72Q173.84-30.16 176.00-32.42Q178.16-34.68 182.32-34.68L182.32-34.68Q186.48-34.68 188.64-32.42Q190.80-30.16 190.80-25.72L190.80-25.72L190.80-9.36Q190.80-4.72 188.64-2.20Q186.48 0.32 182.32 0.32L182.32 0.32ZM182.32-6Q183.24-6 183.56-6.80Q183.88-7.60 183.88-9.04L183.88-9.04L183.88-25.84Q183.88-26.96 183.58-27.66Q183.28-28.36 182.36-28.36L182.36-28.36Q180.64-28.36 180.64-25.76L180.64-25.76L180.64-9Q180.64-7.52 181.00-6.76Q181.36-6 182.32-6L182.32-6Z"/></g>
</svg>
</g></svg></svg>